<?xml version="1.0" encoding="utf-8"?>
<!-- Generator: Adobe Illustrator 16.0.4, SVG Export Plug-In . SVG Version: 6.00 Build 0)  -->
<!DOCTYPE svg PUBLIC "-//W3C//DTD SVG 1.1//EN" "http://www.w3.org/Graphics/SVG/1.1/DTD/svg11.dtd">
<svg version="1.1" id="Layer_1" xmlns="http://www.w3.org/2000/svg" xmlns:xlink="http://www.w3.org/1999/xlink" x="0px" y="0px"
	 width="582px" height="163px" viewBox="0 0 582 163" enable-background="new 0 0 582 163" xml:space="preserve">
<g id="EXPAND_ICON">
	<g>
		<polygon fill="#FFFFFF" points="138,111.848 136,111.848 136,103.848 144,103.848 144,105.848 138,105.848 		"/>
		<polygon fill="#FFFFFF" points="144,135.848 136,135.848 136,127.848 138,127.848 138,133.848 144,133.848 		"/>
		<polygon fill="#FFFFFF" points="168,111.848 166,111.848 166,105.848 160,105.848 160,103.848 168,103.848 		"/>
		<polygon fill="#FFFFFF" points="168,135.848 160,135.848 160,133.848 166,133.848 166,127.848 168,127.848 		"/>
	</g>
</g>
<polygon fill="#A7A9AC" points="44.816,139.83 27.956,116.71 44.817,93.591 46.433,94.77 30.432,116.71 46.432,138.651 "/>
<polygon fill="#A7A9AC" points="79.461,139.829 77.845,138.65 93.847,116.709 77.846,94.769 79.462,93.59 96.322,116.709 "/>
<polygon fill="#A7A9AC" stroke="#A7A9AC" stroke-width="1.5" stroke-miterlimit="10" points="44.816,72.83 27.956,49.71 
	44.817,26.591 46.433,27.77 30.432,49.71 46.432,71.651 "/>
<polygon fill="#A7A9AC" stroke="#A7A9AC" stroke-width="1.5" stroke-miterlimit="10" points="79.461,72.829 77.845,71.65 
	93.847,49.709 77.846,27.769 79.462,26.59 96.322,49.709 "/>
<g>
	<path fill="#A7A9AC" d="M234,50.812c-2.493,0-4.521-2.119-4.521-4.724s2.028-4.724,4.521-4.724s4.521,2.119,4.521,4.724
		S236.493,50.812,234,50.812z M234,42.365c-1.942,0-3.521,1.67-3.521,3.724s1.58,3.724,3.521,3.724s3.521-1.67,3.521-3.724
		S235.942,42.365,234,42.365z"/>
	<path fill="#A7A9AC" d="M234,55.089c-7.891,0-14.14-8.348-14.402-8.703l-0.219-0.297l0.219-0.297
		c0.262-0.355,6.511-8.703,14.402-8.703c7.896,0,14.141,8.348,14.403,8.703l0.219,0.297l-0.219,0.297
		C248.141,46.741,241.896,55.089,234,55.089z M220.635,46.089c1.188,1.483,6.789,8,13.365,8c6.588,0,12.18-6.517,13.367-8
		c-1.188-1.482-6.786-8-13.367-8C227.424,38.089,221.823,44.606,220.635,46.089z"/>
</g>
<g>
	<path fill="#FFFFFF" d="M141.5,45.348c-0.276,0-0.5-0.224-0.5-0.5v-6h6c0.276,0,0.5,0.224,0.5,0.5s-0.224,0.5-0.5,0.5h-5v5
		C142,45.124,141.776,45.348,141.5,45.348z"/>
	<path fill="#FFFFFF" d="M161.5,45.348c-0.276,0-0.5-0.224-0.5-0.5v-5h-4c-0.276,0-0.5-0.224-0.5-0.5s0.224-0.5,0.5-0.5h5v6
		C162,45.124,161.776,45.348,161.5,45.348z"/>
	<path fill="#FFFFFF" d="M147,59.848h-6v-6c0-0.276,0.224-0.5,0.5-0.5s0.5,0.224,0.5,0.5v5h5c0.276,0,0.5,0.224,0.5,0.5
		S147.276,59.848,147,59.848z"/>
	<path fill="#FFFFFF" d="M162,59.848h-5c-0.276,0-0.5-0.224-0.5-0.5s0.224-0.5,0.5-0.5h4v-5c0-0.276,0.224-0.5,0.5-0.5
		s0.5,0.224,0.5,0.5V59.848z"/>
</g>
<g>
	<path fill="#FFFFFF" d="M312.208,38.848h-0.594H311h-12v21h17v-15v-0.583v-0.703L312.208,38.848z M315,58.848h-15v-19h11v5h4
		V58.848z"/>
	<path fill="#FFFFFF" d="M310.646,51.469L308,54.115v-8.268c0-0.276-0.224-0.5-0.5-0.5s-0.5,0.224-0.5,0.5v8.268l-2.646-2.646
		c-0.195-0.195-0.512-0.195-0.707,0s-0.195,0.512,0,0.707l3.854,3.854l3.854-3.854c0.195-0.195,0.195-0.512,0-0.707
		S310.842,51.273,310.646,51.469z"/>
</g>
<g>
	<path fill="#A7A9AC" d="M236.458,127.882c-3.605,0-6.538-2.933-6.538-6.538c0-3.605,2.933-6.539,6.538-6.539
		c3.603,0,6.534,2.933,6.534,6.539C242.992,124.95,240.061,127.882,236.458,127.882z M236.458,115.806
		c-3.054,0-5.538,2.484-5.538,5.539c0,3.053,2.484,5.538,5.538,5.538c3.052,0,5.534-2.484,5.534-5.538
		C241.992,118.291,239.509,115.806,236.458,115.806z"/>
	<path fill="#A7A9AC" d="M236.458,133.999c-11.72,0-21.018-11.844-21.408-12.348l-0.237-0.306l0.237-0.306
		c0.39-0.504,9.688-12.347,21.408-12.347c11.709,0,21.014,11.843,21.404,12.347l0.237,0.306l-0.237,0.306
		C257.471,122.155,248.167,133.999,236.458,133.999z M216.088,121.345c1.553,1.87,10.166,11.654,20.369,11.654
		c10.194,0,18.811-9.783,20.365-11.654c-1.554-1.871-10.171-11.653-20.365-11.653C226.246,109.691,217.64,119.474,216.088,121.345z"
		/>
</g>
<g>
	<g>
		<g>
			<path fill="#A7A9AC" d="M369.214,111.746h-0.071l-2.232,11.596c-0.144,0.912,0.144,1.081,1.32,1.2l0.768-0.042l0.048,0.246h-5.16
				l0.072-0.281l0.84-0.033c0.912-0.096,1.44-0.315,1.584-1.3l2.328-11.703c-0.168-0.504-0.527-0.884-1.56-1.051l-0.648-0.196
				l-0.048-0.436h4.032l6.288,12h0.072l1.992-10.302c0.145-0.912-0.12-1.096-1.296-1.191l-0.792-0.109l-0.048-0.397h5.16
				l-0.072,0.438l-0.815,0.11c-0.912,0.097-1.465,0.205-1.633,1.189l-2.592,13.262h-0.432L369.214,111.746z"/>
		</g>
	</g>
	<polygon fill="#A7A9AC" points="387.669,121.517 385.706,131.358 375.865,133.322 391.195,136.848 	"/>
</g>
<g>
	<g>
		<g>
			<g>
				<path fill="#374354" d="M370.842,39.489h-0.057l-1.784,9.266c-0.114,0.729,0.115,0.864,1.055,0.959l0.613-0.034l0.038,0.196
					h-4.123l0.058-0.225l0.671-0.026c0.729-0.077,1.151-0.252,1.266-1.039l1.86-9.351c-0.134-0.402-0.421-0.706-1.246-0.839
					l-0.519-0.157l-0.038-0.348h3.222l5.024,9.588h0.058l1.592-8.231c0.116-0.729-0.096-0.875-1.035-0.952l-0.633-0.087
					l-0.039-0.317h4.123l-0.058,0.35l-0.651,0.088c-0.729,0.077-1.17,0.164-1.305,0.95l-2.071,10.596h-0.345L370.842,39.489z"/>
			</g>
		</g>
		<g>
			<polygon fill="#374354" points="385.588,47.296 384.019,55.16 376.156,56.729 388.405,59.545 			"/>
		</g>
	</g>
</g>
<g>
	<path fill="#A7A9AC" d="M317.166,105.848h-0.037H316h-16v31h24v-23v-1.108v-0.049L317.166,105.848z M323,135.848h-22v-29h15v7h7
		V135.848z"/>
	<path fill="#A7A9AC" d="M312,116.848c0-0.276-0.224-0.5-0.5-0.5s-0.5,0.224-0.5,0.5v11.982l-4.646-4.647
		c-0.195-0.195-0.512-0.195-0.707,0s-0.195,0.512,0,0.707l5.854,5.854l5.854-5.854c0.195-0.195,0.195-0.512,0-0.707
		s-0.512-0.195-0.707,0L312,128.83V116.848z"/>
</g>
<polygon fill="#A7A9AC" points="440.856,115.832 440.149,116.539 448.461,124.848 432,124.848 432,125.848 448.133,125.848 
	440.149,133.832 440.856,134.539 450.211,125.184 "/>
<polygon fill="#A7A9AC" points="446.856,61.831 446.149,62.538 448.46,64.848 432,64.848 432,65.848 448.134,65.848 446.149,67.832 
	446.856,68.539 450.211,65.185 "/>
<polygon fill="#FFFFFF" points="493,126.848 486,126.848 486,119.848 485,119.848 485,126.848 478,126.848 478,127.848 485,127.848 
	485,134.848 486,134.848 486,127.848 493,127.848 "/>
<polygon fill="#FFFFFF" points="536,126.848 522.085,126.848 528.695,120.237 527.281,118.823 518.396,127.708 527.281,136.591 
	528.695,135.177 522.365,128.848 536,128.848 "/>
</svg>
