<?xml version="1.0" encoding="UTF-8"?>
<svg width="126px" height="126px" viewBox="0 0 126 126" version="1.1" xmlns="http://www.w3.org/2000/svg" xmlns:xlink="http://www.w3.org/1999/xlink">
    <!-- Generator: Sketch 48.2 (47327) - http://www.bohemiancoding.com/sketch -->
    <title>CIBCSQUARE_Logo</title>
    <desc>Created with Sketch.</desc>
    <defs></defs>
    <g id="Page-1" stroke="none" stroke-width="1" fill="none" fill-rule="evenodd">
        <g id="CIBCSQUARE_Logo">
            <polyline id="Fill-14" fill="#E4E4E3" points="83.317 24.625 63.076 0.731 42.833 24.625 63.075 48.519 83.317 24.625"></polyline>
            <polyline id="Fill-15" fill="#E4E4E3" points="83.317 101.544 63.075 77.65 42.833 101.544 63.075 125.438 83.317 101.544"></polyline>
            <polyline id="Fill-16" fill="#F2F1F0" points="63.076 0.73 83.317 24.625 63.075 48.518 75.415 63.085 125.442 4.03 125.442 0.732 63.076 0.73"></polyline>
            <polyline id="Fill-17" fill="#9E9F9E" points="115.898 63.084 125.442 74.351 125.442 51.818 115.898 63.084"></polyline>
            <polyline id="Fill-18" fill="#BFC0BD" points="125.442 4.03 125.442 51.818 115.898 63.084 95.656 39.19 125.442 4.03"></polyline>
            <polyline id="Fill-19" fill="#D7D8D6" points="63.075 125.437 83.317 101.543 63.075 77.65 75.415 63.085 125.442 122.139 125.442 125.437 63.075 125.437"></polyline>
            <polyline id="Fill-20" fill="#636463" points="125.442 122.139 125.442 74.351 115.898 63.084 95.656 86.979 125.442 122.139"></polyline>
            <polyline id="Fill-21" fill="#9E9F9E" points="95.656 39.19 115.898 63.084 95.656 86.979 75.415 63.085 95.656 39.19"></polyline>
            <polyline id="Fill-22" fill="#F2F1F0" points="63.076 125.437 42.835 101.543 63.077 77.649 50.737 63.083 0.71 122.137 0.71 125.436 63.076 125.437"></polyline>
            <polyline id="Fill-23" fill="#9E9F9E" points="10.254 63.083 0.71 51.817 0.71 74.349 10.254 63.083"></polyline>
            <polyline id="Fill-24" fill="#BFC0BD" points="0.71 122.137 0.71 74.349 10.254 63.083 30.495 86.977 0.71 122.137"></polyline>
            <polyline id="Fill-25" fill="#D7D8D6" points="63.077 0.73 42.835 24.624 63.077 48.518 50.737 63.083 0.71 4.028 0.71 0.73 63.077 0.73"></polyline>
            <polyline id="Fill-26" fill="#636463" points="0.71 4.028 0.71 51.817 10.254 63.083 30.495 39.189 0.71 4.028"></polyline>
            <polyline id="Fill-27" fill="#9E9F9E" points="30.495 86.977 10.254 63.083 30.495 39.189 50.737 63.083 30.495 86.977"></polyline>
        </g>
    </g>
</svg>