<?xml version="1.0" encoding="UTF-8"?>
<svg width="469px" height="265px" viewBox="0 0 469 265" version="1.1" xmlns="http://www.w3.org/2000/svg" xmlns:xlink="http://www.w3.org/1999/xlink">
    <!-- Generator: Sketch 48.2 (47327) - http://www.bohemiancoding.com/sketch -->
    <title>CIBCSQUARE_Logo</title>
    <desc>Created with Sketch.</desc>
    <defs>
        <polygon id="path-1" points="0.925 0.49 84.095 0.49 84.095 52.94 0.925 52.94"></polygon>
    </defs>
    <g id="Page-1" stroke="none" stroke-width="1" fill="none" fill-rule="evenodd">
        <g id="CIBCSQUARE_Logo">
            <path d="M33.328,220.77 C30.286,217.869 26.114,216.454 21.654,216.454 C12.17,216.454 4.46,223.389 4.46,234.216 C4.46,245.043 12.17,251.978 21.654,251.978 C26.114,251.978 30.499,250.632 33.541,247.803 L33.541,252.827 C30.217,254.81 25.97,255.942 21.723,255.942 C8.989,255.942 0,247.094 0,234.216 C0,221.266 9.623,212.49 21.723,212.49 C25.97,212.49 29.928,213.622 33.328,215.676 L33.328,220.77" id="Fill-1" fill="#1A1919"></path>
            <polygon id="Fill-3" fill="#1A1919" points="52.115 255.233 56.506 255.233 56.506 213.198 52.115 213.198"></polygon>
            <path d="M82.823,252.05 C84.529,252.26 85.94,252.332 87,252.332 C95.914,252.332 99.596,249.149 99.596,243.91 C99.596,238.321 94.716,235.844 87.214,235.844 L82.823,235.844 L82.823,252.05 Z M82.823,232.093 L86.58,232.093 C93.656,232.093 97.896,229.332 97.896,223.885 C97.896,218.647 93.863,216.1 86.931,216.1 C85.727,216.1 84.309,216.172 82.823,216.313 L82.823,232.093 Z M78.513,213.127 C81.336,212.773 84.529,212.49 87,212.49 C97.62,212.49 102.218,216.596 102.218,223.885 C102.218,229.332 98.749,233.084 93.368,233.721 C99.879,234.144 103.912,237.754 103.912,243.91 C103.912,250.704 99.245,255.942 87,255.942 C84.171,255.942 81.267,255.656 78.513,255.161 L78.513,213.127 Z" id="Fill-4" fill="#1A1919"></path>
            <path d="M153.038,220.77 C149.996,217.869 145.824,216.454 141.364,216.454 C131.88,216.454 124.17,223.389 124.17,234.216 C124.17,245.043 131.88,251.978 141.364,251.978 C145.824,251.978 150.215,250.632 153.257,247.803 L153.257,252.827 C149.927,254.81 145.686,255.942 141.433,255.942 C128.699,255.942 119.71,247.094 119.71,234.216 C119.71,221.266 129.333,212.49 141.433,212.49 C145.686,212.49 149.644,213.622 153.038,215.676 L153.038,220.77" id="Fill-5" fill="#1A1919"></path>
            <g id="Group-9" transform="translate(195.000000, 212.000000)">
                <mask id="mask-2" fill="white">
                    <use xlink:href="#path-1"></use>
                </mask>
                <g id="Clip-7"></g>
                <path d="M1.213,35.875 C4.606,38.563 7.649,40.191 11.895,40.191 C16.92,40.191 21.236,37.995 21.236,32.476 C21.236,27.454 17.485,25.541 12.46,23.702 C4.958,20.942 0.925,18.465 0.925,11.316 C0.925,4.172 6.871,0.49 13.169,0.49 C17.272,0.49 20.665,1.764 23.218,3.817 L23.218,8.347 C19.824,5.655 16.989,4.241 13.169,4.241 C8.427,4.241 5.171,7.073 5.171,11.389 C5.171,15.422 7.574,17.404 13.664,19.527 C21.449,22.216 25.552,25.117 25.552,32.476 C25.552,40.191 19.467,43.942 11.895,43.942 C7.367,43.942 3.76,42.669 1.213,40.687 L1.213,35.875" id="Fill-6" fill="#1A1919" mask="url(#mask-2)"></path>
                <path d="M62.372,4.454 C52.887,4.454 45.108,11.389 45.108,22.216 C45.108,33.043 52.887,39.978 62.372,39.978 C71.856,39.978 79.635,33.043 79.635,22.216 C79.635,11.389 71.856,4.454 62.372,4.454 Z M61.738,43.942 C49.914,43.588 40.648,34.884 40.648,22.216 C40.648,9.338 50.271,0.49 62.372,0.49 C74.472,0.49 84.095,9.338 84.095,22.216 C84.095,33.398 76.811,41.533 66.97,43.516 L76.386,53 L70.577,53 L61.738,43.942 Z" id="Fill-8" fill="#1A1919" mask="url(#mask-2)"></path>
            </g>
            <path d="M295.045,213.198 L299.435,213.198 L299.435,241.15 C299.435,250.14 304.955,252.05 312.388,252.05 C315.996,252.05 319.177,251.765 322.08,251.269 L322.08,213.198 L326.471,213.198 L326.471,254.315 C322.294,255.306 317.125,255.942 312.388,255.942 C302.973,255.942 295.045,252.969 295.045,241.505 L295.045,213.198" id="Fill-10" fill="#1A1919"></path>
            <path d="M362.87,216.736 L354.095,239.946 L371.715,239.946 L362.87,216.736 Z M352.746,243.628 L348.367,255.233 L343.838,255.233 L360.11,213.198 L365.699,213.198 L382.19,255.233 L377.517,255.233 L373.133,243.628 L352.746,243.628 Z" id="Fill-11" fill="#1A1919"></path>
            <path d="M403.948,235.348 L408.334,235.348 C415.265,235.348 419.368,232.093 419.368,225.653 C419.368,220.274 416.049,216.313 407.486,216.313 C406.634,216.313 404.939,216.382 403.948,216.454 L403.948,235.348 Z M403.948,255.233 L399.557,255.233 L399.557,213.127 C401.471,212.844 405.078,212.49 407.555,212.49 C418.872,212.49 423.897,217.728 423.897,225.512 C423.897,231.738 420.359,236.339 414.769,237.967 L428.714,255.233 L423.263,255.233 L410.241,238.958 L403.948,238.958 L403.948,255.233 Z" id="Fill-12" fill="#1A1919"></path>
            <polyline id="Fill-13" fill="#1A1919" points="468.15 251.413 468.15 255.233 443.949 255.233 443.949 213.198 467.874 213.198 467.874 217.019 448.34 217.019 448.34 231.879 466.595 231.879 466.595 235.702 448.34 235.702 448.34 251.413 468.15 251.413"></polyline>
            <polyline id="Fill-14" fill="#E4E4E3" points="254.317 24.625 234.076 0.731 213.833 24.625 234.075 48.519 254.317 24.625"></polyline>
            <polyline id="Fill-15" fill="#E4E4E3" points="254.317 101.544 234.075 77.65 213.833 101.544 234.075 125.438 254.317 101.544"></polyline>
            <polyline id="Fill-16" fill="#F2F1F0" points="234.076 0.73 254.317 24.625 234.075 48.518 246.415 63.085 296.442 4.03 296.442 0.732 234.076 0.73"></polyline>
            <polyline id="Fill-17" fill="#9E9F9E" points="286.898 63.084 296.442 74.351 296.442 51.818 286.898 63.084"></polyline>
            <polyline id="Fill-18" fill="#BFC0BD" points="296.442 4.03 296.442 51.818 286.898 63.084 266.656 39.19 296.442 4.03"></polyline>
            <polyline id="Fill-19" fill="#D7D8D6" points="234.075 125.437 254.317 101.543 234.075 77.65 246.415 63.085 296.442 122.139 296.442 125.437 234.075 125.437"></polyline>
            <polyline id="Fill-20" fill="#636463" points="296.442 122.139 296.442 74.351 286.898 63.084 266.656 86.979 296.442 122.139"></polyline>
            <polyline id="Fill-21" fill="#9E9F9E" points="266.656 39.19 286.898 63.084 266.656 86.979 246.415 63.085 266.656 39.19"></polyline>
            <polyline id="Fill-22" fill="#F2F1F0" points="234.076 125.437 213.835 101.543 234.077 77.649 221.737 63.083 171.71 122.137 171.71 125.436 234.076 125.437"></polyline>
            <polyline id="Fill-23" fill="#9E9F9E" points="181.254 63.083 171.71 51.817 171.71 74.349 181.254 63.083"></polyline>
            <polyline id="Fill-24" fill="#BFC0BD" points="171.71 122.137 171.71 74.349 181.254 63.083 201.495 86.977 171.71 122.137"></polyline>
            <polyline id="Fill-25" fill="#D7D8D6" points="234.077 0.73 213.835 24.624 234.077 48.518 221.737 63.083 171.71 4.028 171.71 0.73 234.077 0.73"></polyline>
            <polyline id="Fill-26" fill="#636463" points="171.71 4.028 171.71 51.817 181.254 63.083 201.495 39.189 171.71 4.028"></polyline>
            <polyline id="Fill-27" fill="#9E9F9E" points="201.495 86.977 181.254 63.083 201.495 39.189 221.737 63.083 201.495 86.977"></polyline>
        </g>
    </g>
</svg>