<svg xmlns="http://www.w3.org/2000/svg" xmlns:xlink="http://www.w3.org/1999/xlink" width="169.414" height="51.34" viewBox="0 0 169.414 51.34"><image overflow="visible" width="24" height="24" xlink:href="A99F2E4EBEB0C1EA.png" transform="translate(1290.855 4960.026) scale(.8196)"/><image overflow="visible" width="24" height="24" xlink:href="A99F2E4EBEB0C1EE.png" transform="translate(1230.682 4960.026) scale(.8196)"/><image overflow="visible" width="24" height="24" xlink:href="A99F2E4EBEB0C1E9.png" transform="translate(1260.769 4960.026) scale(.8196)"/><path fill="#BABDC4" d="M34.69 8.155c-9.897 0-17.922 8.022-17.922 17.921s8.024 17.922 17.922 17.922c9.899 0 17.923-8.023 17.923-17.922 0-9.898-8.023-17.921-17.923-17.921zM19.146 23.711c-.001-5.51 6.956-9.537 15.544-8.992v2.758c-6.882-.438-12.462 2.789-12.462 7.203.002 4.418 5.584 8.352 12.466 8.79v1.205c-8.588-.544-15.547-5.452-15.548-10.964zm15.543-3.438v-.791c5.333.338 9.66 3.387 9.661 6.809 0 3.422-4.325 5.93-9.657 5.59l-.001-2.566c3.894.246 7.046-1.58 7.045-4.076 0-2.499-3.153-4.719-7.048-4.966zm0 2.563c-3.893-.246-7.045 1.58-7.045 4.079.001 2.496 3.154 4.723 7.049 4.969v.785c-5.334-.338-9.66-3.385-9.661-6.809-.002-3.422 4.324-5.922 9.657-5.584v2.56zm.006 14.596l-.002-2.758c6.882.438 12.462-2.789 12.461-7.205-.001-4.418-5.582-8.35-12.465-8.788v-1.207c8.588.545 15.547 5.453 15.547 10.963.001 5.513-6.956 9.538-15.541 8.995zm26.929-13.76V12.376h2.496v11.296h-2.496zm8.543 0h-2.32l-2.752-8.544h2.48l1.104 4.544c.176.721.369 1.696.449 2.032h.031c.064-.368.289-1.376.465-2.048l1.184-4.528h2.111l-2.752 8.544zm9.553.161c-.801 0-1.201-.496-1.328-1.168-.705.832-1.361 1.248-2.529 1.248-1.504 0-2.527-1.088-2.527-2.544 0-2.32 2.432-2.768 4.32-2.768.352 0 .561-.017.561-.305v-.56c0-.608-.385-1.185-1.568-1.185-.992 0-1.744.465-2.113.784l-.783-1.6c.943-.608 1.984-.88 3.457-.88 1.199 0 3.135.432 3.135 2.896v3.937c0 .304.033.56.305.56.096 0 .271-.048.367-.08l.129 1.456c-.338.081-.899.209-1.426.209zm-1.522-3.856h-.672c-.783 0-1.967.192-1.967 1.217 0 .623.447 1.071 1.072 1.071.496 0 .912-.159 1.199-.464.256-.271.367-.592.367-1.008v-.816h.001zm9.328 3.695v-5.408c0-.863-.303-1.455-1.278-1.455-.447 0-.849.191-1.088.416-.432.415-.465.623-.465 1.199v5.248h-2.24v-8.544h2.08v1.216c.609-.912 1.408-1.488 2.576-1.488 1.904 0 2.656 1.28 2.656 2.944v5.872h-2.241zm9.202 0v-5.408c0-.863-.305-1.455-1.281-1.455-.447 0-.848.191-1.088.416-.432.415-.463.623-.463 1.199v5.248h-2.24v-11.84h2.256v4.304c.592-.784 1.344-1.28 2.4-1.28 1.902 0 2.654 1.28 2.654 2.944v5.872h-2.238zm7.791.305c-2.801 0-4.049-2.16-4.049-4.592 0-2.416 1.361-4.56 4.129-4.56 2.801 0 4.049 2.16 4.049 4.592-.001 2.416-1.361 4.56-4.129 4.56zm.08-7.393c-1.424 0-1.793 1.584-1.793 2.784s.289 2.848 1.713 2.848 1.793-1.584 1.793-2.784c0-1.2-.29-2.848-1.713-2.848zm12.943 3.2h-5.295v.048c0 1.52 1.104 2.336 2.543 2.336.768 0 1.584-.32 2.033-.561l.592 1.664a7.562 7.562 0 0 1-3.041.673c-2.672 0-4.353-1.824-4.353-4.48 0-2.256 1.218-4.608 3.951-4.608 2.642 0 3.616 2.032 3.616 4 .003.272-.012.641-.046.928zm-3.664-3.36c-1.279 0-1.68 1.088-1.68 1.84h3.278c.082-.895-.461-1.84-1.598-1.84zm.801-2.112h-1.729l1.793-2.48h2.559l-2.623 2.48zM65.987 39.944c-3.439 0-5.6-2.463-5.6-5.791 0-3.152 1.809-6.08 5.6-6.08 1.393 0 2.416.287 3.232.656l-.816 2.062c-.736-.398-1.553-.607-2.271-.607-2.352 0-3.152 2.111-3.152 3.904 0 2.352 1.553 3.744 3.328 3.744.896 0 1.695-.271 2.256-.607l.672 1.936c-.817.416-2.145.783-3.249.783zm10.657-.111c-.801 0-1.201-.496-1.328-1.168-.705.832-1.359 1.248-2.527 1.248-1.504 0-2.529-1.088-2.529-2.545 0-2.318 2.432-2.768 4.32-2.768.352 0 .561-.016.561-.305v-.559c0-.609-.385-1.186-1.568-1.186-.992 0-1.744.463-2.111.783l-.785-1.6c.945-.607 1.984-.881 3.457-.881 1.199 0 3.135.434 3.135 2.896v3.936c0 .305.033.561.305.561.096 0 .271-.049.367-.08l.129 1.457c-.339.084-.899.211-1.426.211zm-1.52-3.856h-.672c-.785 0-1.969.191-1.969 1.215 0 .625.447 1.072 1.072 1.072.496 0 .912-.16 1.199-.465.256-.271.369-.592.369-1.008l.001-.814zm13.775 3.695v-5.408c0-.863-.306-1.455-1.151-1.455-.416 0-.752.176-.961.398-.384.416-.433.672-.433 1.217v5.248h-2.24v-5.408c0-.863-.303-1.455-1.15-1.455-.416 0-.77.176-.977.398-.385.416-.416.641-.416 1.217v5.248h-2.24v-8.545h2.08v1.137c.576-.863 1.232-1.408 2.367-1.408 1.137 0 1.89.527 2.306 1.537.592-.896 1.328-1.537 2.479-1.537 1.84 0 2.576 1.279 2.576 2.943v5.873h-2.24zm8.145.272c-.642 0-1.394-.256-1.824-.654v.383h-2.176v-11.84H95.3v4.416c.576-.832 1.229-1.393 2.318-1.393 2.239 0 3.168 2.385 3.168 4.447.001 1.922-1.008 4.641-3.742 4.641zm-.289-7.135c-.447 0-.801.191-1.039.432-.385.367-.434.607-.434 1.104v2.896c0 .592.354 1.119 1.377 1.119 1.438 0 1.791-1.551 1.791-2.719.001-1.152-.271-2.832-1.695-2.832zm9.855.512c-.159-.08-.479-.225-.782-.225-.48 0-.736.145-.943.336-.305.271-.32.625-.32 1.088v5.152h-2.24v-6.385c0-.736-.064-1.76-.08-2.16h2.016v1.281c.513-.816 1.072-1.488 2.13-1.488.317 0 .639.096.813.16l-.594 2.241zm2.993-3.279c-.768 0-1.264-.496-1.264-1.186 0-.688.496-1.184 1.264-1.184s1.248.496 1.248 1.184-.48 1.186-1.248 1.186zm-1.135 9.63v-8.545h2.238v8.545h-2.238zm9.502 0V38.44c-.592.881-1.215 1.504-2.383 1.504-2.4 0-3.279-2.641-3.279-4.641s1.008-4.447 3.742-4.447c.656 0 1.328.209 1.744.607v-3.631h2.256v11.84h-2.08zm-.158-6.095c0-.641-.369-1.104-1.457-1.104-1.375 0-1.711 1.326-1.711 2.543 0 1.152.256 2.992 1.742 2.992.449 0 .801-.225 1.025-.432.352-.352.399-.656.399-1.105l.002-2.894zm7.15 9.535c-1.359 0-3.775-.447-3.775-2.256 0-.977.641-1.488 1.248-1.729v-.031a1.504 1.504 0 0 1-.848-1.344c0-.896.496-1.52.928-1.824-.576-.545-.848-1.279-.848-2.096 0-1.568 1.104-2.977 3.344-2.977.656 0 1.359.176 1.809.432h2.352v1.602h-1.022c.062.191.158.592.158.928 0 1.566-1.119 2.928-3.358 2.928a4.26 4.26 0 0 1-1.105-.16c-.256-.062-.336-.096-.526.111-.063.064-.129.305-.129.465 0 .367.271.656.802.656h2.733c1.407 0 2.435.768 2.435 2.238-.005 2.16-2.198 3.057-4.198 3.057zm1.088-3.52h-2.383c-.306 0-.562.207-.562.832 0 .959 1.168 1.232 1.854 1.232 1.441 0 2-.625 2-1.217.003-.622-.413-.847-.909-.847zm-1.039-7.359c-.928 0-1.232.943-1.232 1.6 0 .689.256 1.553 1.184 1.553.929 0 1.232-.91 1.232-1.566-.001-.675-.257-1.587-1.184-1.587zm12.321 3.551h-5.297v.049c0 1.521 1.104 2.336 2.545 2.336.768 0 1.584-.318 2.03-.561l.593 1.664a7.553 7.553 0 0 1-3.039.672c-2.672 0-4.353-1.822-4.353-4.479 0-2.256 1.215-4.607 3.951-4.607 2.641 0 3.614 2.031 3.614 4 .002.269-.014.639-.044.926zm-3.665-3.36c-1.281 0-1.681 1.088-1.681 1.84h3.279c.082-.894-.463-1.84-1.598-1.84z"/></svg>